<svg width="390" height="298" viewBox="0 0 390 298" fill="none" xmlns="http://www.w3.org/2000/svg">
<path d="M376.598 0.108887H13.4024C6.00082 0.108887 0 6.11041 0 13.5146V283.628C0 291.032 6.00082 297.034 13.4024 297.034H376.597C383.999 297.034 389.999 291.032 389.999 283.628V13.5146C390 6.11041 383.999 0.108887 376.598 0.108887Z" fill="#1685FB"/>
<path d="M390 283.625V13.5168C390 6.1073 383.997 0.110352 376.597 0.110352H355.017C362.417 0.110352 368.421 6.1073 368.421 13.5168V283.624C368.421 291.034 362.417 297.031 355.017 297.031H376.597C383.997 297.031 390 291.035 390 283.625Z" fill="#4C60E1"/>
<path d="M390 58.1622V13.5168C390 6.1073 383.997 0.110352 376.597 0.110352H13.4032C6.00311 0.111113 0 6.10807 0 13.5168V58.1622H390Z" fill="#E3F4FF"/>
<path d="M390 58.1622V13.5168C390 6.1073 383.997 0.110352 376.597 0.110352H355.017C362.417 0.110352 368.421 6.1073 368.421 13.5168V58.1622H390Z" fill="#BDDFF4"/>
<path d="M75.4155 34.9675H75.3416C72.0913 34.9675 69.4565 32.3321 69.4565 29.0811C69.4565 25.83 72.0913 23.1946 75.3416 23.1946C78.5918 23.1946 81.2639 25.83 81.2639 29.0811C81.2639 32.3321 78.6657 34.9675 75.4155 34.9675Z" fill="#54DDAC"/>
<path d="M56.1326 35.024C52.9105 35.024 50.2826 32.429 50.2491 29.1985C50.2148 25.9474 52.8221 23.2846 56.0724 23.2503C59.2876 23.2069 62.0214 25.824 62.0557 29.0751C62.09 32.3269 59.5192 34.989 56.2689 35.0232L56.195 35.024C56.1745 35.024 56.1531 35.024 56.1326 35.024Z" fill="#FDC142"/>
<path d="M36.9243 35.0796C33.7022 35.0796 31.0735 32.4846 31.0408 29.2541C31.0073 26.0023 33.6146 23.3394 36.8649 23.3059C36.8855 23.3059 36.9068 23.3059 36.9266 23.3059C40.1494 23.3059 42.8139 25.901 42.8474 29.1314C42.8809 32.3825 40.3109 35.0453 37.0599 35.0789L36.986 35.0796C36.9662 35.0796 36.9449 35.0796 36.9243 35.0796Z" fill="#FC3E81"/>
<path d="M131.659 35.0796H111.235C107.985 35.0796 105.35 32.4442 105.35 29.1931C105.35 25.9421 107.985 23.3066 111.235 23.3066H131.659C134.91 23.3066 137.544 25.9421 137.544 29.1931C137.544 32.4442 134.91 35.0796 131.659 35.0796Z" fill="#BDDFF4"/>
<path d="M126.658 141.593H121.552V134.638C121.552 128.84 116.846 124.14 111.04 124.14C105.235 124.14 100.528 128.84 100.528 134.638V141.593H75.9981L93.6621 111.727C96.6145 106.735 94.9558 100.297 89.957 97.3487C84.9581 94.3994 78.5124 96.0566 75.56 101.048L48.5292 146.752C46.6099 149.997 46.5802 154.021 48.4507 157.295C50.3219 160.568 53.8061 162.589 57.5806 162.589H100.529V194.228C100.529 200.026 105.235 204.726 111.041 204.726C116.847 204.726 121.553 200.026 121.553 194.228V162.589H126.659C132.464 162.589 137.171 157.889 137.171 152.091C137.17 146.293 132.464 141.593 126.658 141.593Z" fill="#FD9E28"/>
<path d="M332.419 141.593H327.314V134.638C327.314 128.84 322.608 124.14 316.802 124.14C310.996 124.14 306.29 128.84 306.29 134.638V141.593H281.759L299.423 111.727C302.375 106.735 300.717 100.297 295.718 97.3487C290.719 94.3994 284.273 96.0566 281.321 101.048L254.29 146.752C252.371 149.997 252.341 154.021 254.211 157.295C256.083 160.568 259.567 162.589 263.341 162.589H306.29V194.228C306.29 200.026 310.996 204.726 316.802 204.726C322.608 204.726 327.314 200.026 327.314 194.228V162.589H332.419C338.225 162.589 342.931 157.889 342.931 152.091C342.931 146.293 338.225 141.593 332.419 141.593Z" fill="#FD9E28"/>
<path fill-rule="evenodd" clip-rule="evenodd" d="M181.549 204.725H208.451C221.76 204.725 232.589 193.912 232.589 180.619V119.993C232.589 106.701 221.76 95.887 208.451 95.887H181.549C168.24 95.887 157.412 106.7 157.412 119.993V180.619C157.412 193.911 168.24 204.725 181.549 204.725ZM180.368 124.144C180.368 121.206 182.763 118.814 185.706 118.814H204.295C207.237 118.814 209.632 121.206 209.632 124.144V176.468C209.632 179.407 207.237 181.798 204.295 181.798H185.706C182.763 181.798 180.368 179.406 180.368 176.468V124.144Z" fill="#FD9E28"/>
<path d="M283.273 272.579C280.01 272.579 277.328 269.934 277.328 266.671C277.328 263.408 279.935 260.763 283.198 260.763H283.273C286.536 260.763 289.181 263.408 289.181 266.671C289.181 269.934 286.536 272.579 283.273 272.579Z" fill="#E3F4FF"/>
<path d="M302.84 272.636C299.577 272.636 296.894 269.991 296.894 266.728C296.894 263.465 299.502 260.82 302.766 260.82H302.84C306.103 260.82 308.749 263.465 308.749 266.728C308.749 269.991 306.103 272.636 302.84 272.636Z" fill="#E3F4FF"/>
<path d="M322.409 272.693C322.389 272.693 322.368 272.693 322.347 272.693C319.084 272.66 316.429 269.987 316.462 266.724C316.496 263.482 319.097 260.875 322.332 260.875C322.353 260.875 322.373 260.875 322.394 260.875L322.469 260.876C325.732 260.91 328.35 263.582 328.316 266.846C328.283 270.087 325.643 272.693 322.409 272.693Z" fill="#E3F4FF"/>
<path d="M69.8371 248.314H50.2698C47.0068 248.314 44.3617 245.692 44.3617 242.458C44.3617 239.224 47.0068 236.602 50.2698 236.602H69.8371C73.1001 236.602 75.7452 239.224 75.7452 242.458C75.7452 245.692 73.1001 248.314 69.8371 248.314Z" fill="#E3F4FF"/>
<path d="M89.4044 272.639H50.2698C47.0068 272.639 44.3617 270.017 44.3617 266.783C44.3617 263.548 47.0068 260.926 50.2698 260.926H89.4044C92.6674 260.926 95.3125 263.548 95.3125 266.783C95.3125 270.017 92.6674 272.639 89.4044 272.639Z" fill="#E3F4FF"/>
</svg>
