<svg width="128" height="92" viewBox="0 0 128 92" fill="none" xmlns="http://www.w3.org/2000/svg">
<path d="M31.5671 11.8922C34.3073 9.15202 37.6121 7.78162 41.4809 7.78162C45.3497 7.78162 48.6539 9.15202 51.3947 11.8922C54.1348 14.633 55.5052 17.9371 55.5052 21.8059C55.5052 25.6748 54.1348 28.9796 51.3947 31.7197C48.6539 34.4606 45.3497 35.8303 41.4809 35.8303C37.6121 35.8303 34.3073 34.4606 31.5671 31.7197C28.8263 28.9796 27.4565 25.6748 27.4565 21.8059C27.4565 17.9371 28.8263 14.633 31.5671 11.8922ZM48.0974 15.1894C46.2654 13.3581 44.0597 12.4418 41.4809 12.4418C38.9015 12.4418 36.6958 13.3581 34.8644 15.1894C33.0323 17.0216 32.1167 19.2272 32.1167 21.8059C32.1167 24.3853 33.0323 26.5836 34.8644 28.4006C36.6958 30.2181 38.9015 31.1263 41.4809 31.1263C44.0597 31.1263 46.2654 30.2181 48.0974 28.4006C49.9287 26.5836 50.8451 24.3853 50.8451 21.8059C50.8451 19.2272 49.9287 17.0216 48.0974 15.1894Z" fill="#022139"/>
<path d="M10.7069 45.9451H5.48511V40.7232H10.7069V45.9451Z" fill="#2AB45C"/>
<path d="M7.19639 39.297H5.41919V37.5198H7.19639V39.297Z" fill="#2AB45C"/>
<path d="M3.15938 45.3965H0V42.2371H3.15938V45.3965Z" fill="#2AB45C"/>
<path d="M7.17454 50.9474H4.91467V48.6875H7.17454V50.9474Z" fill="#2AB45C"/>
<path d="M15.1388 43.4657H13.0984V41.4253H15.1388V43.4657Z" fill="#2AB45C"/>
<path d="M42.6455 56.5314C45.3857 53.7914 48.6905 52.4209 52.5593 52.4209C56.4281 52.4209 59.7322 53.7914 62.473 56.5314C65.2131 59.2723 66.5837 62.5766 66.5837 66.4453V82.8877L58.8022 79.019C56.7798 79.986 54.6984 80.4697 52.5593 80.4697C48.6905 80.4697 45.3857 79.0999 42.6455 76.3591C39.9047 73.6188 38.5349 70.3141 38.5349 66.4453C38.5349 62.5766 39.9047 59.2723 42.6455 56.5314ZM56.9776 62.027C55.7611 60.8111 54.2883 60.2025 52.5593 60.2025C50.8296 60.2025 49.3568 60.8111 48.141 62.027C46.9244 63.2436 46.3164 64.7162 46.3164 66.4453C46.3164 68.1749 46.9244 69.6477 48.141 70.8636C49.3568 72.0802 50.8296 72.6882 52.5593 72.6882C54.2883 72.6882 55.7611 72.0802 56.9776 70.8636C58.1934 69.6477 58.8022 68.1749 58.8022 66.4453C58.8022 64.7162 58.1934 63.2436 56.9776 62.027Z" fill="#022139"/>
<path d="M104.062 56.5315C106.802 53.7914 110.107 52.4209 113.976 52.4209C117.844 52.4209 121.149 53.7914 123.889 56.5315C126.629 59.2724 128 62.5766 128 66.4454C128 70.3141 126.629 73.6189 123.889 76.3592C121.149 79.1 117.844 80.4697 113.976 80.4697C110.107 80.4697 106.802 79.1 104.062 76.3592C101.321 73.6189 99.9512 70.3141 99.9512 66.4454C99.9512 62.5766 101.321 59.2724 104.062 56.5315ZM118.394 62.0271C117.177 60.8111 115.704 60.2026 113.976 60.2026C112.246 60.2026 110.773 60.8111 109.557 62.0271C108.341 63.2437 107.733 64.7163 107.733 66.4454C107.733 68.1454 108.341 69.6038 109.557 70.8198C110.773 72.0363 112.246 72.6441 113.976 72.6441C115.704 72.6441 117.177 72.0363 118.394 70.8198C119.61 69.6038 120.218 68.1454 120.218 66.4454C120.218 64.7163 119.61 63.2437 118.394 62.0271Z" fill="#022139"/>
<path d="M33.6112 48.0686C31.3252 45.7824 28.5699 44.6394 25.3461 44.6394H12.5331V47.7623H9.78296V50.7198H27.3559V51.936H9.78296V53.228H27.3559V61.4357H9.78296V84.3385L17.5646 80.4698V67.984H25.3461C28.5403 67.984 31.288 66.8341 33.5893 64.533C35.8899 62.2324 37.0404 59.4847 37.0404 56.2897C37.0404 53.0955 35.8974 50.3547 33.6112 48.0686Z" fill="#022139"/>
<path d="M61.9951 11.7875C64.7133 9.06925 67.9917 7.70981 71.8294 7.70981C75.6672 7.70981 78.9448 9.06925 81.6635 11.7875C84.3818 14.5063 85.7412 17.7839 85.7412 21.6217V32.6115C85.7412 36.4493 84.3818 39.7269 81.6635 42.4457C78.9448 45.164 75.6672 46.5233 71.8294 46.5233C68.8925 46.5233 66.2322 45.6798 63.8486 43.994C61.4644 42.3074 59.7778 40.127 58.7898 37.4523H63.9359C64.7495 38.7893 65.8547 39.8578 67.2502 40.6577C68.6458 41.457 70.1721 41.857 71.8294 41.857C74.3874 41.857 76.5755 40.9555 78.3928 39.1532C80.2095 37.3501 81.1184 35.1702 81.1184 32.6115C81.1184 32.5243 81.1109 32.4153 81.0966 32.2845C81.0816 32.1536 81.0748 32.0595 81.0748 32.001C78.4289 34.356 75.3469 35.5334 71.8294 35.5334C67.9917 35.5334 64.7133 34.1747 61.9951 31.4559C59.2763 28.7376 57.9175 25.4594 57.9175 21.6217C57.9175 17.7839 59.2763 14.5063 61.9951 11.7875ZM78.3928 15.0583C76.5755 13.2416 74.3874 12.3326 71.8294 12.3326C69.2706 12.3326 67.0826 13.2416 65.2659 15.0583C63.4486 16.8756 62.5403 19.0636 62.5403 21.6217C62.5403 24.1804 63.4486 26.3609 65.2659 28.1632C67.0826 29.9663 69.2706 30.8672 71.8294 30.8672C74.3874 30.8672 76.5755 29.9663 78.3928 28.1632C80.2095 26.3609 81.1184 24.1804 81.1184 21.6217C81.1184 19.0636 80.2095 16.8756 78.3928 15.0583Z" fill="#022139"/>
<path d="M97.445 77.5025C97.445 81.3403 96.0931 84.6255 93.3892 87.3587C90.6853 90.0911 87.4145 91.458 83.5768 91.458C80.6113 91.458 77.9436 90.6219 75.5743 88.9504C73.2042 87.2783 71.5109 85.0909 70.4936 82.387H79.6955C80.7707 83.2878 82.0647 83.7389 83.5768 83.7389C84.9723 83.7389 86.2295 83.3029 87.3491 82.4306C88.4681 81.5584 89.2025 80.4681 89.5515 79.1598C87.5454 80.0613 85.5536 80.5117 83.5768 80.5117C79.7098 80.5117 76.4247 79.153 73.7208 76.4342C71.0169 73.7159 69.665 70.4377 69.665 66.6C69.665 62.7622 71.0169 59.4846 73.7208 56.7657C76.4247 54.0475 79.7098 52.6881 83.5768 52.6881C87.4145 52.6881 90.6853 54.0475 93.3892 56.7657C96.0931 59.4846 97.445 62.7622 97.445 66.6V77.5025ZM87.9379 62.217C86.7454 61.0109 85.2919 60.4072 83.5768 60.4072C81.861 60.4072 80.4 61.0109 79.194 62.217C77.9872 63.4239 77.3841 64.8849 77.3841 66.6C77.3841 68.3157 77.9872 69.7691 79.194 70.961C80.4 72.1535 81.861 72.7491 83.5768 72.7491C85.2919 72.7491 86.7454 72.1535 87.9379 70.961C89.1297 69.7691 89.7259 68.3157 89.7259 66.6C89.7259 64.8849 89.1297 63.4239 87.9379 62.217Z" fill="#022139"/>
<path d="M9.78296 -4.61703e-06H14.4431V31.1702H26.2692L28.5993 35.8303H9.78296V-4.61703e-06Z" fill="#022139"/>
</svg>
